<?xml version="1.0" standalone="no"?><!DOCTYPE svg PUBLIC "-//W3C//DTD SVG 1.1//EN" "http://www.w3.org/Graphics/SVG/1.1/DTD/svg11.dtd"><svg t="1565242663638" class="icon" viewBox="0 0 1024 1024" version="1.1" xmlns="http://www.w3.org/2000/svg" p-id="2702" xmlns:xlink="http://www.w3.org/1999/xlink" width="200" height="200"><defs><style type="text/css"></style></defs><path d="M438.6181737737481 119.05215454119502H173.49673574905677c-26.038713033007408 0-47.343114487782714 21.304401454775306-47.343114487782714 47.34311319324444v267.4885944610765c0 26.038713033007408 21.304401454775306 47.343114487782714 47.343114487782714 47.34311319324444H440.98532891559506c26.038713033007408 0 47.343114487782714-21.304401454775306 47.343114487782714-47.34311319324444V166.39526773443953c-2.3671551418469137-26.038713033007408-23.67155659662222-47.343114487782714-49.71026962962962-47.34311319324444z m0 314.83170765432095H173.49673574905677V166.39526773443953H440.98532891559506l-2.3671551418469137 267.4885944610765zM871.8076657057184 192.43398076744688c-14.202934734696296 0-23.67155659662222 9.468623156464195-23.67155659662222 23.67155659662222v217.77832483144692H580.6475146480198V166.39526773443953h224.87979155152587c14.202934734696296 0 23.67155659662222-9.468623156464195 23.67155659662222-23.67155659662222s-9.468623156464195-23.67155659662222-23.67155659662222-23.67155659662222h-224.87979155152587c-26.038713033007408 0-47.343114487782714 21.304401454775306-47.34311319324444 47.34311319324444v267.4885944610765c0 26.038713033007408 21.304401454775306 47.343114487782714 47.34311319324444 47.34311319324444h267.4885944610765c26.038713033007408 0 47.343114487782714-21.304401454775306 47.34311319324444-47.34311319324444v-217.77832483144692c0-14.202934734696296-11.83577829831111-23.67155659662222-23.67155659662222-23.67155659662222zM438.6181737737481 530.93724501839H173.49673574905677c-26.038713033007408 0-47.343114487782714 21.304401454775306-47.343114487782714 47.343114487782714v267.4885931665383c0 26.038713033007408 21.304401454775306 47.343114487782714 47.343114487782714 47.343114487782714H440.98532891559506c26.038713033007408 0 47.343114487782714-21.304401454775306 47.343114487782714-47.343114487782714V578.2803595061728c-2.3671551418469137-26.038713033007408-23.67155659662222-47.343114487782714-49.71026962962962-47.343114487782714z m0 314.83170765432095H173.49673574905677V578.2803595061728H440.98532891559506l-2.3671551418469137 267.4885931665383zM848.1361091090963 530.93724501839H580.6475146480198c-26.038713033007408 0-47.343114487782714 21.304401454775306-47.34311319324444 47.343114487782714v267.4885931665383c0 26.038713033007408 21.304401454775306 47.343114487782714 47.34311319324444 47.343114487782714h267.4885944610765c26.038713033007408 0 47.343114487782714-21.304401454775306 47.34311319324444-47.343114487782714V578.2803595061728c0-26.038713033007408-21.304401454775306-47.343114487782714-47.34311319324444-47.343114487782714z m0 314.83170765432095H580.6475146480198V578.2803595061728h267.4885944610765v267.4885931665383z" fill="" p-id="2703"></path></svg>