<?xml version="1.0" standalone="no"?><!DOCTYPE svg PUBLIC "-//W3C//DTD SVG 1.1//EN" "http://www.w3.org/Graphics/SVG/1.1/DTD/svg11.dtd"><svg t="1567498406816" class="icon" viewBox="0 0 1024 1024" version="1.1" xmlns="http://www.w3.org/2000/svg" p-id="8821" xmlns:xlink="http://www.w3.org/1999/xlink" width="200" height="200"><defs><style type="text/css"></style></defs><path d="M896 645.12l-138.24-163.84H844.8c-12.8-194.56-174.08-348.16-368.64-348.16-202.24 0-368.64 168.96-368.64 376.32s166.4 376.32 368.64 376.32c74.24 0 145.92-23.04 207.36-66.56 23.04-17.92 58.88-10.24 74.24 12.8 17.92 23.04 10.24 58.88-12.8 74.24-79.36 56.32-171.52 84.48-268.8 84.48C212.48 990.72 0 773.12 0 506.88S212.48 25.6 476.16 25.6c248.32 0 455.68 212.48 478.72 455.68H1024l-128 163.84z m-263.68-140.8c17.92 10.24 30.72 25.6 40.96 43.52 10.24 17.92 15.36 40.96 15.36 66.56 0 20.48-5.12 40.96-17.92 58.88-10.24 15.36-25.6 30.72-43.52 40.96-17.92 10.24-38.4 17.92-58.88 25.6-15.36 5.12-30.72 5.12-46.08 7.68v17.92c0 5.12-2.56 10.24-5.12 15.36-2.56 2.56-7.68 5.12-15.36 5.12h-35.84c-5.12 0-10.24-2.56-15.36-5.12-2.56-2.56-5.12-7.68-5.12-15.36v-17.92c-38.4-2.56-74.24-12.8-102.4-30.72-33.28-20.48-56.32-51.2-66.56-89.6 0-5.12-2.56-10.24-2.56-17.92 0-5.12 0-10.24-2.56-15.36 0-5.12 0-10.24 5.12-15.36 2.56-5.12 10.24-7.68 15.36-7.68h48.64c5.12 0 10.24 2.56 15.36 5.12 2.56 2.56 5.12 7.68 5.12 15.36 0 10.24 2.56 20.48 7.68 30.72 5.12 10.24 10.24 17.92 20.48 25.6 7.68 7.68 17.92 12.8 30.72 17.92 5.12 2.56 17.92 5.12 25.6 5.12v-143.36c-15.36-2.56-30.72-7.68-46.08-10.24-20.48-5.12-38.4-12.8-53.76-23.04-15.36-10.24-30.72-23.04-38.4-38.4-10.24-17.92-15.36-35.84-15.36-58.88 0-20.48 5.12-38.4 15.36-56.32 10.24-15.36 23.04-30.72 38.4-40.96 15.36-10.24 33.28-20.48 53.76-25.6 15.36-5.12 28.16-5.12 43.52-7.68v-17.92c0-5.12 2.56-10.24 5.12-15.36 2.56-2.56 7.68-5.12 15.36-5.12h35.84c5.12 0 10.24 2.56 15.36 5.12 2.56 2.56 5.12 7.68 5.12 15.36v17.92c15.36 0 30.72 2.56 43.52 7.68 20.48 5.12 38.4 12.8 53.76 23.04 15.36 10.24 28.16 23.04 38.4 40.96 10.24 15.36 15.36 35.84 15.36 53.76 0 5.12-2.56 10.24-5.12 15.36-2.56 5.12-10.24 5.12-15.36 5.12h-48.64c-5.12 0-10.24-2.56-12.8-5.12-2.56-2.56-5.12-7.68-5.12-15.36s-2.56-12.8-5.12-20.48c-5.12-7.68-10.24-12.8-15.36-17.92-7.68-5.12-15.36-10.24-25.6-12.8-5.12 0-7.68-2.56-12.8-2.56v125.44c17.92 5.12 38.4 7.68 53.76 12.8 17.92 10.24 35.84 17.92 53.76 28.16z m-202.24-56.32c5.12 2.56 10.24 2.56 15.36 5.12v-110.08c-5.12 0-10.24 2.56-15.36 2.56-10.24 2.56-20.48 7.68-28.16 12.8-7.68 5.12-12.8 10.24-15.36 17.92-2.56 5.12-5.12 12.8-5.12 20.48 0 10.24 2.56 17.92 5.12 23.04 2.56 5.12 7.68 10.24 15.36 15.36 7.68 5.12 15.36 10.24 28.16 12.8z m140.8 207.36c7.68-5.12 15.36-12.8 20.48-20.48 5.12-7.68 7.68-15.36 7.68-25.6 0-12.8-2.56-20.48-5.12-28.16-5.12-7.68-10.24-12.8-17.92-17.92-7.68-5.12-17.92-10.24-30.72-12.8-7.68-2.56-12.8-2.56-20.48-5.12v130.56c7.68 0 12.8-2.56 17.92-5.12 7.68-5.12 17.92-10.24 28.16-15.36z" fill="#2c2c2c" p-id="8822"></path></svg>