<?xml version="1.0" standalone="no"?><!DOCTYPE svg PUBLIC "-//W3C//DTD SVG 1.1//EN" "http://www.w3.org/Graphics/SVG/1.1/DTD/svg11.dtd"><svg t="1567498575990" class="icon" viewBox="0 0 1024 1024" version="1.1" xmlns="http://www.w3.org/2000/svg" p-id="2309" xmlns:xlink="http://www.w3.org/1999/xlink" width="200" height="200"><defs><style type="text/css"></style></defs><path d="M768 256v384H128V256h640m0-64H128c-35.3 0-64 28.7-64 64v384c0 35.3 28.7 64 64 64h640c35.3 0 64-28.7 64-64V256c0-35.3-28.7-64-64-64z" p-id="2310"></path><path d="M864 832H224c-52.9 0-96-43.1-96-96h64c0 17.6 14.4 32 32 32h640c17.6 0 32-14.4 32-32V352c0-17.6-14.4-32-32-32v-64c52.9 0 96 43.1 96 96v384c0 52.9-43.1 96-96 96z" p-id="2311"></path><path d="M533.7 465.3c17.7 0 32-14.3 32-32s-14.3-32-32-32h-21l46.6-62.1c10.6-14.1 7.7-34.2-6.4-44.8s-34.2-7.7-44.8 6.4l-59.7 79.6-59.7-79.6c-10.6-14.1-30.7-17-44.8-6.4-14.1 10.6-17 30.7-6.4 44.8l46.6 62.1h-21c-17.7 0-32 14.3-32 32s14.3 32 32 32h53.3v12.9H363c-17.7 0-32 14.3-32 32s14.3 32 32 32h53.3V576c0 17.7 14.3 32 32 32s32-14.3 32-32v-33.8h53.3c17.7 0 32-14.3 32-32s-14.3-32-32-32h-53.3v-12.9h53.4z" p-id="2312"></path></svg>