<?xml version="1.0" standalone="no"?><!DOCTYPE svg PUBLIC "-//W3C//DTD SVG 1.1//EN" "http://www.w3.org/Graphics/SVG/1.1/DTD/svg11.dtd"><svg t="1567498319844" class="icon" viewBox="0 0 1024 1024" version="1.1" xmlns="http://www.w3.org/2000/svg" p-id="1696" xmlns:xlink="http://www.w3.org/1999/xlink" width="200" height="200"><defs><style type="text/css"></style></defs><path d="M959.562409 923.105079 862.333994 248.89672c-5.554506-38.291095-25.688055-72.128761-56.69014-95.277994-31.004131-23.149233-69.165266-32.838919-107.457384-27.285436s-72.129784 25.687032-95.279017 56.69014c-11.220552 15.027252-19.268856 31.739888-23.961738 49.330522l0-26.857694c0-79.874165-64.98199-144.856156-144.856156-144.856156-46.315862 0-87.621617 21.852704-114.15697 55.785537-26.535353-33.932834-67.841108-55.785537-114.15697-55.785537-79.874165 0-144.856156 64.98199-144.856156 144.856156l0 722.06225c0 2.119267 0.214894 4.188392 0.623193 6.186909 2.862187 13.988596 15.240099 24.512277 30.075992 24.512277l228.313939 0 228.313939 0 379.860471 0c0.833995 0 1.657756-0.042979 2.474354-0.10847 8.388041-0.38374 16.277732-4.185322 21.801539-10.562567C958.213691 940.854325 960.833355 931.921885 959.562409 923.105079zM652.104945 219.757053c13.33675-17.862833 32.832779-29.462009 54.895261-32.660864s44.048215 2.38328 61.910025 15.72003c17.862833 13.33675 29.462009 32.831756 32.658817 54.869678l92.164073 639.102816-160.566976 0-96.804766-615.279225C633.210619 259.500219 638.798894 237.576907 652.104945 219.757053zM671.022807 896.858298l-92.077092 0L578.945715 311.621297 671.022807 896.858298zM122.317837 205.495234c0-46.01808 37.438681-83.457784 83.457784-83.457784s83.457784 37.438681 83.457784 83.457784l0 691.363064L122.317837 896.858298 122.317837 205.495234zM350.631776 896.858298 350.631776 205.495234c0-46.01808 37.438681-83.457784 83.457784-83.457784s83.457784 37.438681 83.457784 83.457784l0 691.363064L350.631776 896.858298z" p-id="1697"></path></svg>